ffmpeg started on 2016-11-24 at 09:50:25
Report written to "Output/NVENCh264/results/ffmpeg/sintelhp3500k.log"
Command line:
Tools/ffmpeg/ffmpeg -benchmark -y -i Input/y4m/sintel.y4m -c:v h264_nvenc -preset hp -b:v 3500k -an Output/NVENCh264/encoded/sintelhp3500k.mkv
ffmpeg version N-82227-gdb23fde Copyright (c) 2000-2016 the FFmpeg developers
  built with gcc 5.4.0 (Ubuntu 5.4.0-6ubuntu1~16.04.2) 20160609
  configuration: --prefix=/home/jaroslav/ffmpeg_build --pkg-config-flags=--static --extra-cflags=-I/home/jaroslav/ffmpeg_build/include --extra-ldflags=-L/home/jaroslav/ffmpeg_build/lib --bindir=/home/jaroslav/bin --enable-gpl --enable-libass --enable-libfdk-aac --enable-libfreetype --enable-libmp3lame --enable-libopus --enable-libtheora --enable-libvorbis --enable-libvpx --enable-libx264 --enable-libx265 --enable-nvenc --enable-libmfx --enable-libxvid --enable-libgsm --enable-libopencore-amrnb --enable-version3 --enable-nonfree
  libavutil      55. 35.100 / 55. 35.100
  libavcodec     57. 66.101 / 57. 66.101
  libavformat    57. 57.100 / 57. 57.100
  libavdevice    57.  2.100 / 57.  2.100
  libavfilter     6. 66.100 /  6. 66.100
  libswscale      4.  3.100 /  4.  3.100
  libswresample   2.  4.100 /  2.  4.100
  libpostproc    54.  2.100 / 54.  2.100
Input #0, yuv4mpegpipe, from 'Input/y4m/sintel.y4m':
  Duration: 00:00:20.83, start: 0.000000, bitrate: 2057307 kb/s
    Stream #0:0: Video: rawvideo (I420 / 0x30323449), yuv420p(progressive), 4096x1744, SAR 1:1 DAR 256:109, 24 fps, 24 tbr, 24 tbn, 24 tbc
Output #0, matroska, to 'Output/NVENCh264/encoded/sintelhp3500k.mkv':
  Metadata:
    encoder         : Lavf57.57.100
    Stream #0:0: Video: h264 (h264_nvenc) (Main) (H264 / 0x34363248), yuv420p, 4096x1744 [SAR 1:1 DAR 256:109], q=-1--1, 3500 kb/s, 24 fps, 1k tbn, 24 tbc
    Metadata:
      encoder         : Lavc57.66.101 h264_nvenc
    Side data:
      cpb: bitrate max/min/avg: 0/0/3500000 buffer size: 7000000 vbv_delay: -1
Stream mapping:
  Stream #0:0 -> #0:0 (rawvideo (native) -> h264 (h264_nvenc))
Press [q] to stop, [?] for help
frame=    3 fps=2.6 q=0.0 size=       0kB time=00:00:00.00 bitrate=N/A speed=   0x    frame=   12 fps=7.0 q=0.0 size=       0kB time=00:00:00.00 bitrate=N/A speed=   0x    frame=   19 fps=8.5 q=0.0 size=       0kB time=00:00:00.00 bitrate=N/A speed=   0x    frame=   40 fps= 15 q=43.0 size=       1kB time=00:00:00.37 bitrate=  15.6kbits/s speed=0.137x    frame=   61 fps= 19 q=49.0 size=       1kB time=00:00:01.25 bitrate=   4.7kbits/s speed=0.385x    frame=   76 fps= 19 q=49.0 size=       1kB time=00:00:01.87 bitrate=   3.1kbits/s speed=0.473x    frame=   97 fps= 22 q=49.0 size=       1kB time=00:00:02.75 bitrate=   2.1kbits/s speed=0.615x    frame=  118 fps= 24 q=49.0 size=       1kB time=00:00:03.62 bitrate=   1.6kbits/s speed=0.728x    frame=  123 fps= 22 q=49.0 size=       1kB time=00:00:03.83 bitrate=   1.5kbits/s speed=0.698x    frame=  132 fps= 14 q=49.0 size=       1kB time=00:00:04.20 bitrate=   1.4kbits/s speed=0.462x    frame=  133 fps= 11 q=49.0 size=       1kB time=00:00:04.25 bitrate=   1.4kbits/s speed=0.355x    frame=  154 fps= 12 q=49.0 size=    2890kB time=00:00:05.12 bitrate=4618.0kbits/s speed=0.41x    frame=  175 fps= 13 q=49.0 size=    2890kB time=00:00:06.00 bitrate=3944.7kbits/s speed=0.461x    frame=  196 fps= 15 q=49.0 size=    2890kB time=00:00:06.87 bitrate=3442.7kbits/s speed=0.509x    frame=  216 fps= 15 q=49.0 size=    2890kB time=00:00:07.70 bitrate=3070.7kbits/s speed=0.538x    frame=  221 fps= 15 q=49.0 size=    2890kB time=00:00:07.91 bitrate=2989.6kbits/s speed=0.526x    frame=  239 fps= 15 q=49.0 size=    2890kB time=00:00:08.66 bitrate=2731.0kbits/s speed=0.556x    frame=  260 fps= 16 q=49.0 size=    2890kB time=00:00:09.54 bitrate=2480.6kbits/s speed=0.593x    frame=  281 fps= 17 q=49.0 size=    5220kB time=00:00:10.41 bitrate=4105.0kbits/s speed=0.627x    frame=  287 fps= 16 q=49.0 size=    5220kB time=00:00:10.66 bitrate=4008.8kbits/s speed=0.609x    frame=  289 fps= 16 q=49.0 size=    5220kB time=00:00:10.75 bitrate=3977.8kbits/s speed=0.584x    frame=  294 fps= 15 q=49.0 size=    5220kB time=00:00:10.95 bitrate=3902.3kbits/s speed=0.571x    frame=  295 fps= 15 q=49.0 size=    5220kB time=00:00:11.00 bitrate=3887.4kbits/s speed=0.557x    frame=  296 fps= 15 q=47.0 size=    5544kB time=00:00:11.04 bitrate=4112.9kbits/s speed=0.542x    frame=  298 fps= 14 q=49.0 size=    5544kB time=00:00:11.12 bitrate=4082.2kbits/s speed=0.533x    frame=  301 fps= 14 q=49.0 size=    5544kB time=00:00:11.25 bitrate=4036.9kbits/s speed=0.518x    frame=  303 fps= 13 q=49.0 size=    5544kB time=00:00:11.33 bitrate=4007.3kbits/s speed=0.498x    frame=  308 fps= 13 q=48.0 size=    5544kB time=00:00:11.54 bitrate=3934.8kbits/s speed=0.492x    frame=  313 fps= 13 q=49.0 size=    5544kB time=00:00:11.75 bitrate=3865.1kbits/s speed=0.481x    frame=  317 fps= 13 q=49.0 size=    5544kB time=00:00:11.91 bitrate=3811.0kbits/s speed=0.478x    frame=  318 fps= 12 q=48.0 size=    5544kB time=00:00:11.95 bitrate=3797.9kbits/s speed=0.469x    frame=  321 fps= 12 q=48.0 size=    5544kB time=00:00:12.08 bitrate=3758.6kbits/s speed=0.464x    frame=  322 fps= 12 q=49.0 size=    5544kB time=00:00:12.12 bitrate=3745.6kbits/s speed=0.452x    frame=  323 fps= 12 q=49.0 size=    5544kB time=00:00:12.16 bitrate=3732.7kbits/s speed=0.445x    frame=  325 fps= 12 q=48.0 size=    5544kB time=00:00:12.25 bitrate=3707.4kbits/s speed=0.438x    frame=  328 fps= 11 q=48.0 size=    5544kB time=00:00:12.37 bitrate=3669.9kbits/s speed=0.429x    frame=  331 fps= 11 q=47.0 size=    5544kB time=00:00:12.50 bitrate=3633.2kbits/s speed=0.422x    frame=  342 fps= 11 q=44.0 size=    5544kB time=00:00:12.95 bitrate=3504.8kbits/s speed=0.424x    frame=  343 fps= 11 q=44.0 size=    5544kB time=00:00:13.00 bitrate=3493.5kbits/s speed=0.416x    frame=  345 fps= 11 q=44.0 size=    5544kB time=00:00:13.08 bitrate=3471.3kbits/s speed=0.412x    frame=  365 fps= 11 q=43.0 size=    5544kB time=00:00:13.91 bitrate=3263.3kbits/s speed=0.431x    frame=  372 fps= 11 q=42.0 size=    5544kB time=00:00:14.20 bitrate=3196.5kbits/s speed=0.424x    frame=  374 fps= 11 q=42.0 size=    5544kB time=00:00:14.29 bitrate=3177.7kbits/s speed=0.417x    frame=  376 fps= 11 q=41.0 size=    5544kB time=00:00:14.37 bitrate=3159.4kbits/s speed=0.41x    frame=  380 fps= 11 q=41.0 size=    5544kB time=00:00:14.54 bitrate=3123.1kbits/s speed=0.409x    frame=  381 fps= 11 q=41.0 size=    5544kB time=00:00:14.58 bitrate=3114.3kbits/s speed=0.403x    frame=  383 fps= 10 q=41.0 size=    5544kB time=00:00:14.66 bitrate=3096.5kbits/s speed=0.398x    frame=  384 fps= 10 q=41.0 size=    5544kB time=00:00:14.70 bitrate=3087.8kbits/s speed=0.393x    frame=  385 fps= 10 q=41.0 size=    5544kB time=00:00:14.75 bitrate=3079.1kbits/s speed=0.388x    frame=  387 fps=9.9 q=42.0 size=    5544kB time=00:00:14.83 bitrate=3061.8kbits/s speed=0.379x    frame=  389 fps=9.7 q=42.0 size=    5544kB time=00:00:14.91 bitrate=3044.6kbits/s speed=0.374x    frame=  392 fps=9.6 q=42.0 size=    5544kB time=00:00:15.04 bitrate=3019.3kbits/s speed=0.369x    frame=  393 fps=9.5 q=42.0 size=    5544kB time=00:00:15.08 bitrate=3011.1kbits/s speed=0.365x    frame=  395 fps=9.3 q=45.0 size=    5544kB time=00:00:15.16 bitrate=2994.4kbits/s speed=0.357x    frame=  396 fps=9.2 q=45.0 size=    5544kB time=00:00:15.20 bitrate=2986.3kbits/s speed=0.353x    frame=  397 fps=9.1 q=44.0 size=    5544kB time=00:00:15.25 bitrate=2978.1kbits/s speed=0.35x    frame=  398 fps=9.0 q=44.0 size=    5544kB time=00:00:15.29 bitrate=2969.9kbits/s speed=0.346x    frame=  400 fps=8.9 q=45.0 size=    5544kB time=00:00:15.37 bitrate=2953.9kbits/s speed=0.341x    frame=  402 fps=8.8 q=44.0 size=    5544kB time=00:00:15.45 bitrate=2938.0kbits/s speed=0.338x    frame=  404 fps=8.7 q=44.0 size=    5544kB time=00:00:15.54 bitrate=2922.2kbits/s speed=0.335x    frame=  409 fps=8.7 q=44.0 size=    5544kB time=00:00:15.75 bitrate=2883.6kbits/s speed=0.333x    frame=  411 fps=8.6 q=44.0 size=    5544kB time=00:00:15.83 bitrate=2868.5kbits/s speed=0.33x    frame=  413 fps=8.5 q=44.0 size=    5544kB time=00:00:15.91 bitrate=2853.3kbits/s speed=0.327x    frame=  414 fps=8.4 q=44.0 size=    5544kB time=00:00:15.95 bitrate=2846.0kbits/s speed=0.322x    frame=  415 fps=8.3 q=43.0 size=    5544kB time=00:00:16.00 bitrate=2838.5kbits/s speed=0.32x    frame=  416 fps=8.2 q=43.0 size=    5544kB time=00:00:16.04 bitrate=2831.1kbits/s speed=0.316x    frame=  419 fps=8.1 q=43.0 size=    6811kB time=00:00:16.16 bitrate=3450.8kbits/s speed=0.314x    frame=  420 fps=8.0 q=43.0 size=    6811kB time=00:00:16.20 bitrate=3442.0kbits/s speed=0.31x    frame=  421 fps=8.0 q=43.0 size=    6811kB time=00:00:16.25 bitrate=3433.1kbits/s speed=0.308x    frame=  423 fps=7.9 q=43.0 size=    6811kB time=00:00:16.33 bitrate=3415.7kbits/s speed=0.304x    frame=  425 fps=7.7 q=44.0 size=    6811kB time=00:00:16.41 bitrate=3398.2kbits/s speed=0.299x    frame=  427 fps=7.7 q=44.0 size=    6811kB time=00:00:16.50 bitrate=3381.1kbits/s speed=0.297x    frame=  429 fps=7.6 q=45.0 size=    6811kB time=00:00:16.58 bitrate=3364.2kbits/s speed=0.295x    frame=  431 fps=7.5 q=45.0 size=    6811kB time=00:00:16.66 bitrate=3347.2kbits/s speed=0.291x    frame=  432 fps=7.5 q=45.0 size=    6811kB time=00:00:16.70 bitrate=3339.0kbits/s speed=0.289x    frame=  433 fps=7.4 q=45.0 size=    6811kB time=00:00:16.75 bitrate=3330.7kbits/s speed=0.286x    frame=  434 fps=7.3 q=45.0 size=    6811kB time=00:00:16.79 bitrate=3322.3kbits/s speed=0.284x    frame=  439 fps=7.3 q=45.0 size=    6811kB time=00:00:17.00 bitrate=3281.7kbits/s speed=0.283x    frame=  443 fps=7.3 q=44.0 size=    6811kB time=00:00:17.16 bitrate=3249.8kbits/s speed=0.282x    frame=  445 fps=7.2 q=44.0 size=    6811kB time=00:00:17.25 bitrate=3234.1kbits/s speed=0.278x    frame=  446 fps=7.1 q=44.0 size=    6811kB time=00:00:17.29 bitrate=3226.3kbits/s speed=0.275x    frame=  447 fps=7.1 q=44.0 size=    6811kB time=00:00:17.33 bitrate=3218.6kbits/s speed=0.274x    frame=  448 fps=7.0 q=44.0 size=    6811kB time=00:00:17.37 bitrate=3210.9kbits/s speed=0.272x    frame=  450 fps=6.9 q=45.0 size=    7223kB time=00:00:17.45 bitrate=3389.0kbits/s speed=0.269x    frame=  452 fps=6.9 q=45.0 size=    7223kB time=00:00:17.54 bitrate=3372.8kbits/s speed=0.268x    frame=  454 fps=6.9 q=45.0 size=    7223kB time=00:00:17.62 bitrate=3356.9kbits/s speed=0.266x    frame=  456 fps=6.8 q=45.0 size=    7223kB time=00:00:17.70 bitrate=3341.2kbits/s speed=0.263x    frame=  458 fps=6.7 q=45.0 size=    7223kB time=00:00:17.79 bitrate=3325.4kbits/s speed=0.262x    frame=  459 fps=6.7 q=45.0 size=    7223kB time=00:00:17.83 bitrate=3317.7kbits/s speed=0.26x    frame=  461 fps=6.6 q=45.0 size=    7223kB time=00:00:17.91 bitrate=3302.2kbits/s speed=0.257x    frame=  462 fps=6.6 q=45.0 size=    7223kB time=00:00:17.95 bitrate=3294.7kbits/s speed=0.255x    frame=  467 fps=6.6 q=44.0 size=    7223kB time=00:00:18.16 bitrate=3256.8kbits/s speed=0.255x    frame=  469 fps=6.5 q=44.0 size=    7223kB time=00:00:18.25 bitrate=3241.9kbits/s speed=0.254x    frame=  472 fps=6.5 q=43.0 size=    7223kB time=00:00:18.37 bitrate=3219.9kbits/s speed=0.253x    frame=  473 fps=6.5 q=43.0 size=    7223kB time=00:00:18.41 bitrate=3212.5kbits/s speed=0.252x    frame=  475 fps=6.4 q=42.0 size=    7223kB time=00:00:18.50 bitrate=3198.1kbits/s speed=0.251x    frame=  481 fps=6.5 q=43.0 size=    7223kB time=00:00:18.75 bitrate=3155.5kbits/s speed=0.253x    frame=  500 fps=6.7 q=40.0 Lsize=    8263kB time=00:00:20.79 bitrate=3255.3kbits/s speed=0.278x    
video:8258kB audio:0kB subtitle:0kB other streams:0kB global headers:0kB muxing overhead: 0.055166%
bench: utime=1.096s
bench: maxrss=834916kB
